<svg width="48" height="48" viewBox="0 0 48 48" fill="none" xmlns="http://www.w3.org/2000/svg">
<path d="M24 0C10.7438 0 0 9.85374 0 24C0 37.2562 10.32 48 24 48C38.4 48 48 37.2562 48 24C48 9.85374 37.2562 0 24 0ZM24 45.9C10.56 45.9 2.1 35.5337 2.1 24C2.1 10.32 12.48 2.1 24 2.1C36.2822 2.1 45.9 11.52 45.9 24C45.9 35.2937 38.4 45.12 24 45.9Z" fill="#475367"/>
<path d="M13.0576 27.4919L22.5443 36.3487C22.9381 36.7162 23.4578 36.9209 23.9986 36.9209C24.5393 36.9209 25.0591 36.7162 25.4528 36.3487L34.9396 27.4919C36.5356 26.0062 37.4386 23.9219 37.4386 21.7432V21.4387C37.4386 17.7689 34.7873 14.6399 31.1701 14.0362C28.7761 13.6372 26.3401 14.4194 24.6286 16.1309L23.9986 16.7609L23.3686 16.1309C21.6571 14.4194 19.2211 13.6372 16.8271 14.0362C13.2098 14.6399 10.5586 17.7689 10.5586 21.4387V21.7432C10.5586 23.9219 11.4616 26.0062 13.0576 27.4919Z" fill="#475367"/>
<circle cx="40.8134" cy="6.88428" r="3.84" transform="rotate(-45 40.8134 6.88428)" fill="#475367"/>
<circle cx="6.87199" cy="40.8254" r="3.84" transform="rotate(-45 6.87199 40.8254)" fill="#475367"/>
<circle cx="40.8134" cy="40.8254" r="3.84" transform="rotate(-45 40.8134 40.8254)" fill="#475367"/>
<circle cx="6.87199" cy="6.88428" r="3.84" transform="rotate(-45 6.87199 6.88428)" fill="#475367"/>
</svg>
