<svg width="117" height="32" viewBox="0 0 117 32" fill="none" xmlns="http://www.w3.org/2000/svg">
<path d="M47.3906 8.07812H37.5703V21.7188H47.3906V8.07812ZM39.75 19.9141V9.83594H45.1875V19.9141H39.75ZM50.9062 26.9922H53.1328V16.0938H56.5078V14.2188H53.1328V5.99219H50.9062V26.9922Z" fill="#475367"/>
<path d="M67.0781 6.4375C62.4844 6.42578 59.5664 7.92578 59.5781 10.4688C59.5664 12.9648 62.4844 14.4414 67.0781 14.4297C71.6836 14.4414 74.5664 12.9648 74.5781 10.4688C74.5664 7.92578 71.6836 6.42578 67.0781 6.4375ZM57.5156 17.8516H76.6641V16.0469H57.5156V17.8516ZM59.8125 26.7344H74.3203V19.7266H59.8125V26.7344ZM61.875 10.4688C61.8633 9.01562 63.8438 8.18359 67.0781 8.19531C70.2891 8.18359 72.293 9.01562 72.2812 10.4688C72.293 11.8633 70.2891 12.6836 67.0781 12.6953C63.8438 12.6836 61.8633 11.8633 61.875 10.4688ZM62.0156 24.9297V21.5078H72.1641V24.9297H62.0156Z" fill="#475367"/>
<path d="M84.2109 6.69531C81.0117 6.71875 78.6914 8.65234 78.6797 11.4062C78.6914 14.1719 81.0117 16.0938 84.2109 16.0938C87.375 16.0938 89.707 14.1719 89.7188 11.4062C89.707 8.65234 87.375 6.71875 84.2109 6.69531ZM80.8594 11.4062C80.8477 9.69531 82.2773 8.54688 84.2109 8.57031C86.1328 8.54688 87.5625 9.69531 87.5625 11.4062C87.5625 13.1406 86.1328 14.2891 84.2109 14.2891C82.2773 14.2891 80.8477 13.1406 80.8594 11.4062ZM81.8672 19.4219H93.4688V21.2734H81.9375V26.7344H96.375V24.9531H84.0938V22.9375H95.6719V17.6406H81.8672V19.4219ZM93.4453 16.6797H95.6719V5.99219H93.4453V16.6797Z" fill="#475367"/>
<path d="M116.461 5.99219H114.211V26.9922H116.461V5.99219ZM99.2109 21.3672L100.383 23.1719C107.59 19.7148 110.203 14.3945 110.203 8.24219H100.219V10.0234H107.953C107.52 14.9219 104.789 18.707 99.2109 21.3672Z" fill="#475367"/>
<path d="M16 0C7.1625 0 0 6.56916 0 16C0 24.8375 6.88 32 16 32C25.6 32 32 24.8375 32 16C32 6.56916 24.8375 0 16 0ZM16 30.6C7.04 30.6 1.4 23.6892 1.4 16C1.4 6.88 8.32 1.4 16 1.4C24.1881 1.4 30.6 7.68 30.6 16C30.6 23.5292 25.6 30.08 16 30.6Z" fill="#475367"/>
<path d="M8.706 18.3279L15.0305 24.2324C15.293 24.4774 15.6395 24.6139 16 24.6139C16.3605 24.6139 16.707 24.4774 16.9695 24.2324L23.294 18.3279C24.358 17.3374 24.96 15.9479 24.96 14.4954V14.2924C24.96 11.8459 23.1925 9.75988 20.781 9.35738C19.185 9.09138 17.561 9.61288 16.42 10.7539L16 11.1739L15.58 10.7539C14.439 9.61288 12.815 9.09138 11.219 9.35738C8.8075 9.75988 7.04 11.8459 7.04 14.2924V14.4954C7.04 15.9479 7.642 17.3374 8.706 18.3279Z" fill="#475367"/>
<path d="M29.0181 2.77935C30.0178 3.7791 30.0178 5.4 29.0181 6.39974C28.0183 7.39948 26.3974 7.39948 25.3977 6.39974C24.3979 5.4 24.3979 3.7791 25.3977 2.77935C26.3974 1.77961 28.0183 1.77961 29.0181 2.77935Z" fill="#475367"/>
<path d="M6.39058 25.4068C7.39032 26.4065 7.39032 28.0274 6.39058 29.0272C5.39084 30.0269 3.76994 30.0269 2.77019 29.0272C1.77045 28.0274 1.77045 26.4065 2.77019 25.4068C3.76994 24.407 5.39084 24.407 6.39058 25.4068Z" fill="#475367"/>
<path d="M29.0181 25.4068C30.0178 26.4065 30.0178 28.0274 29.0181 29.0272C28.0183 30.0269 26.3974 30.0269 25.3977 29.0272C24.3979 28.0274 24.3979 26.4065 25.3977 25.4068C26.3974 24.407 28.0183 24.407 29.0181 25.4068Z" fill="#475367"/>
<path d="M6.39058 2.77935C7.39032 3.7791 7.39032 5.4 6.39058 6.39974C5.39084 7.39948 3.76994 7.39948 2.77019 6.39974C1.77045 5.4 1.77045 3.7791 2.77019 2.77935C3.76994 1.77961 5.39084 1.77961 6.39058 2.77935Z" fill="#475367"/>
</svg>
